<svg xmlns="http://www.w3.org/2000/svg" xmlns:xlink="http://www.w3.org/1999/xlink" xmlns:svgjs="http://svgjs.dev/svgjs" version="1.1" viewBox="0 0 1000 1000"><rect width="1000" height="1000" fill="#ffffff" fill-opacity="0"></rect><g transform="matrix(0.7,0,0,0.7,149.90044910179654,149.90044910179637)"><svg xmlns="http://www.w3.org/2000/svg" xmlns:xlink="http://www.w3.org/1999/xlink" viewBox="0 0 334 334" data-background-color="#ffffff" preserveAspectRatio="xMidYMid meet" height="1000" width="1000"><g id="tight-bounds" transform="matrix(1,0,0,1,0.04749999999998522,0.04750000000001364)"><svg viewBox="0 0 333.90454557049503 333.90454557049503" height="333.90454557049503" width="333.90454557049503"><g><svg></svg></g><g><svg viewBox="0 0 333.90454557049503 333.90454557049503" height="333.90454557049503" width="333.90454557049503"><g><path d="M0 166.952c0-92.205 74.747-166.952 166.952-166.952 92.205 0 166.952 74.747 166.953 166.952 0 92.205-74.747 166.952-166.953 166.953-92.205 0-166.952-74.747-166.952-166.953zM166.952 329.799c89.938 0 162.846-72.909 162.847-162.847 0-89.938-72.909-162.846-162.847-162.846-89.938 0-162.846 72.909-162.846 162.846 0 89.938 72.909 162.846 162.846 162.847z" data-fill-palette-color="tertiary" fill="#000000" stroke="transparent"></path><ellipse rx="160.27418187383762" ry="160.27418187383762" cx="166.95227278524752" cy="166.95227278524752" fill="#000000" stroke="transparent" stroke-width="0" fill-opacity="1" data-fill-palette-color="tertiary"></ellipse></g><g transform="matrix(1,0,0,1,64.18590468604759,71.17305217166896)"><svg viewBox="0 0 205.53273619839985 191.55844122715712" height="191.55844122715712" width="205.53273619839985"><g><svg viewBox="0 0 205.53273619839985 191.55844122715712" height="191.55844122715712" width="205.53273619839985"><g><svg viewBox="0 0 213.15844122715708 198.66566996154597" height="191.55844122715712" width="205.53273619839985"><g transform="matrix(1,0,0,1,0,111.11871899519225)"><svg viewBox="0 0 213.15844122715708 87.54695096635373" height="87.54695096635373" width="213.15844122715708"><g id="textblocktransform"><svg viewBox="0 0 213.15844122715708 87.54695096635373" height="87.54695096635373" width="213.15844122715708" id="textblock"><g><svg viewBox="0 0 213.15844122715708 47.2186420439905" height="47.2186420439905" width="213.15844122715708"><g transform="matrix(1,0,0,1,0,0)"><svg width="213.15844122715708" viewBox="2.1500000953674316 -38.04999923706055 173.79000854492188 38.5" height="47.2186420439905" data-palette-color="#ffffff"><path d="M2.15-17.45Q2.15-22.55 4.45-26.63 6.75-30.7 10.73-33 14.7-35.3 19.55-35.3L19.55-35.3Q25.25-35.3 29.5-32.55 33.75-29.8 35.7-24.75L35.7-24.75 30.25-24.75Q28.8-27.9 26.08-29.6 23.35-31.3 19.55-31.3L19.55-31.3Q15.9-31.3 13-29.6 10.1-27.9 8.45-24.78 6.8-21.65 6.8-17.45L6.8-17.45Q6.8-13.3 8.45-10.18 10.1-7.05 13-5.35 15.9-3.65 19.55-3.65L19.55-3.65Q23.35-3.65 26.08-5.33 28.8-7 30.25-10.15L30.25-10.15 35.7-10.15Q33.75-5.15 29.5-2.43 25.25 0.3 19.55 0.3L19.55 0.3Q14.7 0.3 10.73-1.98 6.75-4.25 4.45-8.3 2.15-12.35 2.15-17.45L2.15-17.45ZM54.4 0.45Q50.55 0.45 47.42-1.3 44.3-3.05 42.52-6.28 40.75-9.5 40.75-13.75L40.75-13.75Q40.75-17.95 42.57-21.18 44.4-24.4 47.55-26.13 50.7-27.85 54.6-27.85L54.6-27.85Q58.5-27.85 61.65-26.13 64.8-24.4 66.62-21.2 68.45-18 68.45-13.75L68.45-13.75Q68.45-9.5 66.57-6.28 64.7-3.05 61.5-1.3 58.3 0.45 54.4 0.45L54.4 0.45ZM54.4-3.55Q56.85-3.55 59-4.7 61.15-5.85 62.47-8.15 63.8-10.45 63.8-13.75L63.8-13.75Q63.8-17.05 62.5-19.35 61.2-21.65 59.1-22.78 57-23.9 54.55-23.9L54.55-23.9Q52.05-23.9 49.97-22.78 47.9-21.65 46.65-19.35 45.4-17.05 45.4-13.75L45.4-13.75Q45.4-10.4 46.62-8.1 47.85-5.8 49.9-4.67 51.95-3.55 54.4-3.55L54.4-3.55ZM98.25 0L92.8 0 84.5-14.25 79-14.25 79 0 74.44 0 74.44-34.85 85.69-34.85Q89.64-34.85 92.37-33.5 95.09-32.15 96.44-29.85 97.8-27.55 97.8-24.6L97.8-24.6Q97.8-21 95.72-18.25 93.64-15.5 89.5-14.6L89.5-14.6 98.25 0ZM79-31.1L79-17.9 85.69-17.9Q89.39-17.9 91.25-19.73 93.09-21.55 93.09-24.6L93.09-24.6Q93.09-27.7 91.27-29.4 89.44-31.1 85.69-31.1L85.69-31.1 79-31.1ZM107.19-31.85Q105.89-31.85 104.99-32.75 104.09-33.65 104.09-34.95L104.09-34.95Q104.09-36.25 104.99-37.15 105.89-38.05 107.19-38.05L107.19-38.05Q108.44-38.05 109.32-37.15 110.19-36.25 110.19-34.95L110.19-34.95Q110.19-33.65 109.32-32.75 108.44-31.85 107.19-31.85L107.19-31.85ZM104.84-27.4L109.39-27.4 109.39 0 104.84 0 104.84-27.4ZM115.44-13.8Q115.44-18 117.14-21.18 118.84-24.35 121.82-26.1 124.79-27.85 128.49-27.85L128.49-27.85Q131.69-27.85 134.44-26.38 137.19-24.9 138.64-22.5L138.64-22.5 138.64-37 143.24-37 143.24 0 138.64 0 138.64-5.15Q137.29-2.7 134.64-1.13 131.99 0.45 128.44 0.45L128.44 0.45Q124.79 0.45 121.82-1.35 118.84-3.15 117.14-6.4 115.44-9.65 115.44-13.8L115.44-13.8ZM138.64-13.75Q138.64-16.85 137.39-19.15 136.14-21.45 134.02-22.68 131.89-23.9 129.34-23.9L129.34-23.9Q126.79-23.9 124.69-22.7 122.59-21.5 121.34-19.2 120.09-16.9 120.09-13.8L120.09-13.8Q120.09-10.65 121.34-8.33 122.59-6 124.69-4.78 126.79-3.55 129.34-3.55L129.34-3.55Q131.89-3.55 134.02-4.78 136.14-6 137.39-8.33 138.64-10.65 138.64-13.75L138.64-13.75ZM175.94-14.75Q175.94-13.45 175.79-12L175.79-12 153.89-12Q154.14-7.95 156.66-5.68 159.19-3.4 162.79-3.4L162.79-3.4Q165.74-3.4 167.71-4.78 169.69-6.15 170.49-8.45L170.49-8.45 175.39-8.45Q174.29-4.5 170.99-2.02 167.69 0.45 162.79 0.45L162.79 0.45Q158.89 0.45 155.81-1.3 152.74-3.05 150.99-6.28 149.24-9.5 149.24-13.75L149.24-13.75Q149.24-18 150.94-21.2 152.64-24.4 155.71-26.13 158.79-27.85 162.79-27.85L162.79-27.85Q166.69-27.85 169.69-26.15 172.69-24.45 174.31-21.48 175.94-18.5 175.94-14.75L175.94-14.75ZM171.24-15.7Q171.24-18.3 170.09-20.18 168.94-22.05 166.96-23.03 164.99-24 162.59-24L162.59-24Q159.14-24 156.71-21.8 154.29-19.6 153.94-15.7L153.94-15.7 171.24-15.7Z" opacity="1" transform="matrix(1,0,0,1,0,0)" fill="#ffffff" class="wordmark-text-0" data-fill-palette-color="quaternary" id="text-0"></path></svg></g></svg></g><g transform="matrix(1,0,0,1,0,58.3658301831676)"><svg viewBox="0 0 213.15844122715708 29.181120783186127" height="29.181120783186127" width="213.15844122715708"><g transform="matrix(1,0,0,1,0,0)"><svg width="213.15844122715708" viewBox="4.949999809265137 -36.349998474121094 359.3899841308594 49.19999694824219" height="29.181120783186127" data-palette-color="#ffffff"><path d="M28.4-2.8L29.65-0.35Q28.65 0.35 27.45 0.35L27.45 0.35Q26 0.35 25.15-0.23 24.3-0.8 23.7-1.6L23.7-1.6 17.75-9.65Q16-12 14.68-12.83 13.35-13.65 11.05-13.8L11.05-13.8 11.05-16.6 15.4-16.6Q18.65-16.6 20.6-18.55 22.55-20.5 22.55-23.85L22.55-23.85Q22.55-27.15 20.7-29.28 18.85-31.4 15.95-31.4L15.95-31.4 7.95-31.4 7.95 0 4.95 0 4.95-34.2 16.15-34.2Q18.85-34.2 20.98-32.88 23.1-31.55 24.33-29.25 25.55-26.95 25.55-24.15L25.55-24.15Q25.55-21.5 24.5-19.45 23.45-17.4 22-16.2 20.55-15 19.3-14.75L19.3-14.75Q18.45-14.6 17.32-14.63 16.2-14.65 16.15-14.65L16.15-14.65Q17.75-14.3 18.9-12.8L18.9-12.8 20.9-10.05Q21.8-8.85 23.63-6.35 25.45-3.85 26-3.25L26-3.25Q26.35-2.85 26.63-2.68 26.9-2.5 27.4-2.5L27.4-2.5Q28.05-2.5 28.4-2.8L28.4-2.8ZM43.09 0L43.09-25.05 46.09-25.05 46.09 0 43.09 0ZM44.49-28.25Q43.64-28.25 43.01-28.88 42.39-29.5 42.39-30.35L42.39-30.35Q42.39-31.25 43.01-31.88 43.64-32.5 44.49-32.5L44.49-32.5Q45.39-32.5 46.01-31.88 46.64-31.25 46.64-30.35L46.64-30.35Q46.64-29.5 46.01-28.88 45.39-28.25 44.49-28.25L44.49-28.25ZM71.32 0.5Q67.97 0.5 65.57-1.23 63.17-2.95 61.92-5.88 60.67-8.8 60.67-12.3L60.67-12.3Q60.67-16.1 62.1-19.07 63.52-22.05 66.27-23.73 69.02-25.4 72.82-25.4L72.82-25.4Q73.97-25.4 75.75-25.28 77.52-25.15 78.87-24.95L78.87-24.95 78.87-36.35 81.62-36.35 81.62-7.2Q81.62-3.35 83.57-1.25L83.57-1.25 81.87 0.4Q79.92-1.05 79.22-3.9L79.22-3.9Q78.07-1.65 75.95-0.58 73.82 0.5 71.32 0.5L71.32 0.5ZM71.47-2.1Q73.72-2.1 75.5-3.2 77.27-4.3 78.17-6.2L78.17-6.2Q78.87-7.6 78.87-9.4L78.87-9.4 78.87-22.3Q76.12-22.65 74.9-22.73 73.67-22.8 72.37-22.8L72.37-22.8Q69.62-22.8 67.62-21.45 65.62-20.1 64.57-17.73 63.52-15.35 63.52-12.45L63.52-12.45Q63.52-8.1 65.62-5.1 67.72-2.1 71.47-2.1L71.47-2.1ZM98.96-11.45Q99.01-7.95 100.66-5.05 102.31-2.15 107.26-2.15L107.26-2.15Q109.41-2.15 111.23-2.7 113.06-3.25 115.21-4.5L115.21-4.5 116.51-2.4Q114.51-1.05 112.06-0.25 109.61 0.55 107.06 0.55L107.06 0.55Q101.81 0.55 98.88-2.83 95.96-6.2 95.96-11.7L95.96-11.7Q95.96-15.25 97.26-18.38 98.56-21.5 101.11-23.45 103.66-25.4 107.11-25.4L107.11-25.4Q110.01-25.4 112.38-24.03 114.76-22.65 116.13-20.28 117.51-17.9 117.51-15L117.51-15Q117.51-14.2 117.46-13.58 117.41-12.95 117.36-12.5L117.36-12.5 117.26-11.45 98.96-11.45ZM99.11-14.15L114.46-14.15Q114.51-14.5 114.51-15.15L114.51-15.15Q114.51-17.25 113.51-18.98 112.51-20.7 110.81-21.7 109.11-22.7 107.06-22.7L107.06-22.7Q104.01-22.7 101.83-20.48 99.66-18.25 99.11-14.15L99.11-14.15ZM164.78 1.15Q162.28 1.15 159.73 0.08 157.18-1 155.25-2.9 153.33-4.8 152.68-7.2L152.68-7.2 155.23-8.2Q156.18-5.15 158.95-3.38 161.73-1.6 164.78-1.6L164.78-1.6Q167.08-1.6 168.98-2.58 170.88-3.55 171.98-5.33 173.08-7.1 173.08-9.35L173.08-9.35Q173.08-11.75 171.75-13.3 170.43-14.85 167.28-16.4L167.28-16.4Q163.03-18.45 160.83-19.75 158.63-21.05 157.23-22.83 155.83-24.6 155.83-27.05L155.83-27.05Q155.83-29.45 157.13-31.3 158.43-33.15 160.6-34.15 162.78-35.15 165.28-35.15L165.28-35.15Q167.38-35.15 169.2-34.38 171.03-33.6 172.05-32.23 173.08-30.85 172.98-29.15L172.98-29.15 170.18-29.3Q170.18-30.75 168.6-31.58 167.03-32.4 165.18-32.4L165.18-32.4Q162.58-32.4 160.7-30.9 158.83-29.4 158.83-27.2L158.83-27.2Q158.83-25.5 159.98-24.15 161.13-22.8 162.7-21.88 164.28-20.95 166.68-19.85L166.68-19.85Q167.18-19.6 167.73-19.35 168.28-19.1 168.78-18.8L168.78-18.8Q172.73-16.7 174.4-14.53 176.08-12.35 176.08-9.3L176.08-9.3Q176.08-6.25 174.5-3.88 172.93-1.5 170.33-0.18 167.73 1.15 164.78 1.15L164.78 1.15ZM190.81-36.3L193.81-36.3 193.81-21.35Q195.36-23.5 197.41-24.5 199.46-25.5 202.16-25.5L202.16-25.5Q206.21-25.5 208.24-23.38 210.26-21.25 210.26-17.35L210.26-17.35 210.26 0 207.26 0 207.26-16.8Q207.26-19.55 205.91-21.13 204.56-22.7 201.86-22.7L201.86-22.7Q199.46-22.7 197.56-21.45 195.66-20.2 193.81-17.7L193.81-17.7 193.81 0 190.81 0 190.81-36.3ZM243.1 0.4Q242.15-0.35 241.57-1.25 241-2.15 240.5-3.6L240.5-3.6Q239.5-1.65 237.52-0.58 235.55 0.5 232.75 0.5L232.75 0.5Q228.8 0.5 226.42-1.6 224.05-3.7 224.05-7.3L224.05-7.3Q224.05-11.1 226.72-13.2 229.4-15.3 234.3-15.3L234.3-15.3 240.1-15.3 240.1-17.1Q240.1-20.1 238.8-21.55 237.5-23 234.8-23L234.8-23Q232.8-23 230.7-22.28 228.6-21.55 226.95-20.3L226.95-20.3 225.6-22.5Q227.45-24.05 229.87-24.88 232.3-25.7 234.85-25.7L234.85-25.7Q238.9-25.7 241-23.63 243.1-21.55 243.1-17.65L243.1-17.65 243.1-7.2Q243.1-3.35 245.05-1.25L245.05-1.25 243.1 0.4ZM232.8-2.2Q236.15-2.2 238.12-4.05 240.1-5.9 240.1-8.85L240.1-8.85 240.1-12.6 235-12.6Q230.75-12.6 228.9-11.38 227.05-10.15 227.05-7.35L227.05-7.35Q227.05-4.85 228.55-3.53 230.05-2.2 232.8-2.2L232.8-2.2ZM269.08-25.5Q270.58-25.5 272.08-25.05L272.08-25.05 272.08-22.25Q270.63-22.6 269.18-22.6L269.18-22.6Q266.63-22.6 265.03-21.35L265.03-21.35Q263.43-20.1 262.18-17.8L262.18-17.8 262.18 0 259.18 0 259.18-17.5Q259.18-21.45 257.08-23.3L257.08-23.3 259.08-25.3Q259.98-24.75 260.78-23.65 261.58-22.55 261.93-21.2L261.93-21.2Q263.33-23.5 264.73-24.35L264.73-24.35Q266.48-25.5 269.08-25.5L269.08-25.5ZM285.72 0L285.72-25.05 288.72-25.05 288.72 0 285.72 0ZM287.12-28.25Q286.27-28.25 285.64-28.88 285.02-29.5 285.02-30.35L285.02-30.35Q285.02-31.25 285.64-31.88 286.27-32.5 287.12-32.5L287.12-32.5Q288.02-32.5 288.64-31.88 289.27-31.25 289.27-30.35L289.27-30.35Q289.27-29.5 288.64-28.88 288.02-28.25 287.12-28.25L287.12-28.25ZM305.4-17.65Q305.4-21.5 303.35-23.55L303.35-23.55 305.25-25.4Q307.45-23.85 308.05-20.9L308.05-20.9Q309.7-23.25 311.75-24.38 313.8-25.5 316.7-25.5L316.7-25.5Q320.6-25.5 322.78-23.4 324.95-21.3 324.9-17.35L324.9-17.35 324.75 0 321.85 0 321.9-16.8Q321.9-22.8 316.45-22.8L316.45-22.8Q313.9-22.8 312.13-21.58 310.35-20.35 308.4-17.7L308.4-17.7 308.4 0 305.4 0 305.4-17.65ZM351.54 12.85Q340.04 12.85 340.04 3.4L340.04 3.4Q340.04 2.6 340.29 0.45L340.29 0.45 340.44-0.9Q339.44-1.7 338.81-2.9 338.19-4.1 338.19-5.45L338.19-5.45Q338.19-6.85 338.94-8.35 339.69-9.85 341.49-10.65L341.49-10.65Q342.09-10.9 342.71-11 343.34-11.1 344.44-11.15L344.44-11.15Q342.54-13.45 342.54-16.6L342.54-16.6Q342.54-19.35 343.81-21.38 345.09-23.4 347.24-24.5 349.39-25.6 351.99-25.6L351.99-25.6Q353.94-25.6 355.49-24.9L355.49-24.9 363.74-24.9 363.74-22.35 359.19-22.65Q361.44-20.25 361.44-16.7L361.44-16.7Q361.44-12.6 358.81-10.28 356.19-7.95 351.99-7.95L351.99-7.95Q349.24-7.95 347.14-9L347.14-9Q346.04-9.1 345.19-9.1L345.19-9.1Q344.09-9.1 343.49-8.95L343.49-8.95Q342.64-8.7 341.86-7.8 341.09-6.9 341.09-5.5L341.09-5.5Q341.09-3.9 342.24-3.25 343.39-2.6 345.64-2.6L345.64-2.6 349.04-2.7 353.29-2.8Q358.39-2.8 361.36-0.95 364.34 0.9 364.34 4.65L364.34 4.65Q364.34 8.9 360.66 10.88 356.99 12.85 351.54 12.85L351.54 12.85ZM352.09-10.55Q355.19-10.55 356.81-12.25 358.44-13.95 358.44-16.65L358.44-16.65Q358.44-19.55 356.66-21.23 354.89-22.9 351.94-22.9L351.94-22.9Q348.94-22.9 347.24-21.2 345.54-19.5 345.54-16.65L345.54-16.65Q345.54-13.7 347.34-12.13 349.14-10.55 352.09-10.55L352.09-10.55ZM351.54 10.15Q361.34 10.15 361.34 4.75L361.34 4.75Q361.34-0.1 353.09-0.1L353.09-0.1Q350.79-0.1 348.99 0L348.99 0 346.79 0.05Q344.34 0.05 342.94-0.2L342.94-0.2 343.04 3.1Q343.14 5.85 344.04 7.38 344.94 8.9 346.71 9.53 348.49 10.15 351.54 10.15L351.54 10.15Z" opacity="1" transform="matrix(1,0,0,1,0,0)" fill="#ffffff" class="slogan-text-1" data-fill-palette-color="quaternary" id="text-1"></path></svg></g></svg></g></svg></g></svg></g><g transform="matrix(1,0,0,1,40.713262274387006,0)"><svg viewBox="0 0 131.73191667838307 99.97153085601515" height="99.97153085601515" width="131.73191667838307"><g><svg xmlns="http://www.w3.org/2000/svg" xmlns:xlink="http://www.w3.org/1999/xlink" version="1.1" x="0" y="0" viewBox="1.1000003814697266 13 98.30000305175781 74.60000610351562" style="enable-background:new 0 0 100 100;" xml:space="preserve" height="99.97153085601515" width="131.73191667838307" class="icon-icon-0" data-fill-palette-color="quaternary" id="icon-0"><path d="M90.6 37.3c0-0.1 0-0.1 0-0.2h7.7v-4.6h-8.4C87.3 21.3 77.2 13 65.2 13H35.5c-12 0-22.1 8.4-24.8 19.6H2.3v4.6H10c0 0 0 0 0 0-5.4 3.5-8.9 9.6-8.9 16.5V56c0 5.6 2.4 10.7 6.2 14.3v8.9c0 4.6 3.7 8.4 8.4 8.4h7.2c4.6 0 8.4-3.7 8.4-8.4v-3.5h39.2v3.5c0 4.6 3.7 8.4 8.4 8.4H86c4.6 0 8.4-3.7 8.4-8.4V69c3.1-3.5 5-8 5-13v-2.4C99.3 46.8 95.8 40.9 90.6 37.3zM35.5 17.5H48l0 2h-4.9v4.4h14v-4.4h-4.8l0-2h12.8c10.3 0 18.9 7.5 20.6 17.4-1.6-0.5-3.4-0.9-5.2-1-1.3-5.5-6.2-9.5-12-9.5-5.8 0-10.7 4.1-12 9.5H20.8c-2 0-4 0.3-5.9 0.9C16.6 25 25.2 17.5 35.5 17.5zM76 33.9H61.1c1.1-3 4.1-5.1 7.4-5.1C72 28.8 74.9 30.9 76 33.9zM11.9 79.2v-5.7c2.7 1.4 5.7 2.2 8.9 2.2h2.1c0 1.6-0.2 5.6-1.7 7.3h-5.6C13.6 83 11.9 81.3 11.9 79.2zM89.8 79.2c0 2.1-1.7 3.8-3.8 3.8h-6.8c-1.4-1.8-1.6-5.7-1.7-7.3h2.1c3.7 0 7.2-1.1 10.2-2.9V79.2zM94.7 56c0 8.3-6.8 15.1-15.1 15.1H20.8c-8.3 0-15.1-6.8-15.1-15.1v-2.4c0-8.3 6.8-15.1 15.1-15.1h58.8c8.3 0 15.1 6.8 15.1 15.1V56z" fill="#ffffff" data-fill-palette-color="quaternary"></path><circle cx="23.5" cy="55" r="5.4" fill="#ffffff" data-fill-palette-color="quaternary"></circle><circle cx="78" cy="55" r="5.4" fill="#ffffff" data-fill-palette-color="quaternary"></circle></svg></g></svg></g><g></g></svg></g></svg></g></svg></g></svg></g><defs></defs></svg><rect width="333.90454557049503" height="333.90454557049503" fill="none" stroke="none" visibility="hidden"></rect></g></svg></g></svg>